<?xml version="1.0" standalone="no"?>
<!DOCTYPE svg PUBLIC "-//W3C//DTD SVG 20010904//EN"
 "http://www.w3.org/TR/2001/REC-SVG-20010904/DTD/svg10.dtd">
<svg version="1.0" xmlns="http://www.w3.org/2000/svg"
 width="640.000000pt" height="640.000000pt" viewBox="0 0 640.000000 640.000000"
 preserveAspectRatio="xMidYMid meet">
<metadata>
Created by potrace 1.14, written by Peter Selinger 2001-2017
</metadata>
<g transform="translate(0.000000,640.000000) scale(0.100000,-0.100000)"
fill="#000000" stroke="none">
<path d="M0 3200 l0 -3200 3200 0 3200 0 0 3200 0 3200 -3200 0 -3200 0 0
-3200z m3505 2121 c22 -5 74 -15 115 -21 292 -47 651 -214 915 -426 413 -331
670 -758 775 -1289 28 -137 39 -500 21 -641 -72 -551 -337 -1040 -751 -1386
-322 -270 -693 -431 -1124 -488 -141 -19 -505 -8 -641 19 -365 73 -677 216
-950 436 -412 332 -676 775 -777 1310 -30 160 -33 530 -5 695 104 615 430
1119 950 1466 102 69 335 183 462 227 125 43 289 82 425 101 117 17 514 15
585 -3z"/>
<path d="M2940 5231 c-603 -84 -1113 -401 -1443 -898 -438 -657 -460 -1515
-57 -2183 207 -344 484 -602 837 -783 478 -245 1068 -289 1573 -117 446 151
842 460 1085 846 302 481 394 1060 255 1609 -124 489 -434 924 -855 1201 -254
167 -528 273 -820 319 -161 25 -415 28 -575 6z m611 -1395 c88 -31 106 -47
115 -102 9 -61 -4 -154 -22 -161 -9 -3 -50 11 -92 30 -128 61 -230 69 -302 26
-39 -24 -64 -80 -55 -125 11 -61 48 -90 221 -174 181 -88 240 -133 290 -222
27 -50 29 -60 29 -163 0 -100 -3 -115 -28 -166 -78 -161 -224 -239 -442 -239
-156 0 -322 52 -352 111 -15 29 -17 163 -3 190 15 27 30 24 103 -16 89 -49
159 -68 247 -69 128 -1 200 55 200 155 0 76 -34 107 -217 196 -177 87 -246
141 -290 231 -25 51 -28 68 -28 157 0 113 18 164 81 241 41 51 152 109 234
123 89 16 230 5 311 -23z m-1160 -3 c6 -6 77 -198 156 -425 308 -880 293 -830
251 -844 -33 -11 -213 -7 -235 4 -12 7 -33 56 -63 146 l-44 136 -239 -2 -240
-3 -42 -129 c-23 -71 -50 -135 -59 -141 -20 -15 -124 -28 -160 -20 -14 3 -37
7 -51 10 -36 8 -33 42 21 197 25 73 72 210 104 303 181 526 262 750 276 766
11 12 34 19 68 21 88 5 244 -6 257 -19z m1623 1 c14 -13 16 -51 16 -255 l0
-239 235 0 235 0 0 245 c0 231 1 245 19 255 32 17 203 13 229 -6 l22 -15 0
-614 0 -614 -22 -15 c-27 -19 -183 -22 -222 -4 l-26 11 -2 264 -3 264 -230 0
-230 1 -3 -261 -2 -261 -25 -16 c-33 -22 -221 -17 -235 6 -11 18 -13 1229 -2
1246 12 19 34 22 134 23 75 1 100 -2 112 -15z"/>
<path d="M2129 3333 c-45 -137 -84 -254 -87 -260 -3 -10 36 -13 173 -13 137 0
176 3 173 13 -3 6 -42 123 -87 260 -46 136 -84 247 -86 247 -2 0 -40 -111 -86
-247z"/>
</g>
</svg>
